<?xml version="1.0" encoding="UTF-8"?>
<svg id="Layer_1" data-name="Layer 1" xmlns="http://www.w3.org/2000/svg" viewBox="0 0 367.25 93.88">
  <defs>
    <style>
      .cls-1 {
        fill: #01a0dc;
      }

      .cls-2 {
        fill: #ffffff;
      }
    </style>
  </defs>
  <path class="cls-1" d="M50.12,31.46l-.35,11.9c-11.12,6.45-21.35,13.16-32.1,18.94L.81,71.36V28.36L49.67.59l.45,30.87Z"/>
  <path class="cls-2" d="M17.67,62.29c10.75-5.78,20.98-12.49,32.1-18.94l.35-11.9,16.58-8.84.09,42.78-48.84,27.73-.28-30.84Z"/>
  <path class="cls-2" d="M118.31,75.56h-9.55V22.44h9.55v53.12Z"/>
  <path class="cls-2" d="M139.64,56.86v18.7h-9.51V22.44h16.66c3.42,0,6.38.42,8.88,1.25,2.5.83,4.56,2,6.19,3.49,1.63,1.49,2.83,3.28,3.61,5.36.78,2.08,1.17,4.36,1.17,6.83s-.41,4.93-1.24,7.07c-.83,2.14-2.06,3.99-3.71,5.53-1.65,1.54-3.71,2.74-6.19,3.6-2.48.86-5.38,1.29-8.7,1.29l-6.49-7.71c1.74,0,9.76-.23,11.06-.68,1.3-.45,2.37-1.1,3.22-1.95.85-.84,1.49-1.87,1.91-3.09.42-1.21.64-2.57.64-4.06s-.21-2.71-.64-3.86c-.42-1.15-1.06-2.13-1.91-2.94-.85-.81-1.92-1.43-3.22-1.85-1.3-.43-2.82-.64-4.56-.64h-7.14v26.85"/>
  <path class="cls-2" d="M301.21,56.86v18.7h-9.51V22.44h16.66c3.42,0,6.38.42,8.88,1.25,2.5.83,4.56,2,6.19,3.49,1.63,1.49,2.83,3.28,3.61,5.36.78,2.08,1.17,4.36,1.17,6.83s-.41,4.93-1.24,7.07c-.83,2.14-2.06,3.99-3.71,5.53-1.65,1.54-3.71,2.74-6.19,3.6-2.48.86-5.38,1.29-8.7,1.29l-6.49-7.71c1.74,0,9.76-.23,11.06-.68,1.3-.45,2.37-1.1,3.22-1.95.85-.84,1.49-1.87,1.91-3.09.42-1.21.64-2.57.64-4.06s-.21-2.71-.64-3.86c-.42-1.15-1.06-2.13-1.91-2.94-.85-.81-1.92-1.43-3.22-1.85-1.3-.43-2.82-.64-4.56-.64h-7.14v26.85"/>
  <path class="cls-2" d="M194.6,67.59c1.84,0,3.48-.32,4.93-.96,1.45-.64,2.68-1.53,3.68-2.68s1.77-2.55,2.3-4.19c.53-1.64.8-3.48.8-5.51v-31.82h9.51v31.82c0,3.16-.49,6.08-1.47,8.76-.98,2.68-2.39,5-4.23,6.94-1.84,1.95-4.07,3.47-6.68,4.56-2.62,1.09-5.57,1.63-8.84,1.63s-6.22-.55-8.84-1.63c-2.62-1.09-4.84-2.61-6.67-4.56s-3.23-4.26-4.21-6.94c-.98-2.68-1.47-5.6-1.47-8.76v-31.82h9.51v31.78c0,2.03.27,3.87.8,5.51.53,1.64,1.29,3.04,2.28,4.21.99,1.16,2.21,2.06,3.66,2.7,1.45.64,3.09.96,4.93.96Z"/>
  <path class="cls-2" d="M252.3,55.97c.34.84.68,1.7,1.01,2.55.33-.88.67-1.75,1.03-2.61.35-.86.73-1.68,1.13-2.46l15.14-29.43c.19-.37.38-.66.58-.88.2-.22.42-.38.67-.48.25-.1.52-.16.83-.18.31-.02.67-.04,1.1-.04h7.18v53.12h-8.38v-34.31c0-.64.02-1.33.05-2.09s.09-1.53.16-2.31l-15.46,30.13c-.35.69-.81,1.22-1.38,1.6-.57.38-1.23.57-1.98.57h-1.31c-.75,0-1.42-.19-1.98-.57-.57-.38-1.03-.91-1.38-1.6l-15.67-30.24c.09.81.16,1.6.2,2.37.04.77.05,1.49.05,2.15v34.31h-8.38V22.44h7.18c.42,0,.79.01,1.1.04.31.02.58.09.83.18.25.1.48.26.69.48.21.22.41.51.6.88l15.28,29.5c.4.78.77,1.6,1.11,2.44Z"/>
  <path class="cls-2" d="M362.91,32.1c-.26.54-.56.92-.9,1.14-.34.22-.75.33-1.22.33s-1-.19-1.59-.57c-.59-.38-1.29-.8-2.09-1.27-.8-.46-1.74-.89-2.81-1.27-1.07-.38-2.34-.57-3.8-.57-1.32,0-2.47.17-3.45.5-.98.33-1.8.79-2.48,1.38s-1.17,1.29-1.5,2.11c-.33.82-.5,1.72-.5,2.7,0,1.25.34,2.29,1.01,3.12.67.83,1.56,1.54,2.67,2.13s2.37,1.11,3.79,1.58c1.41.47,2.86.96,4.33,1.49,1.47.53,2.92,1.14,4.33,1.84,1.41.7,2.68,1.58,3.78,2.65,1.11,1.07,2,2.37,2.67,3.91s1.01,3.42,1.01,5.62c0,2.4-.39,4.65-1.18,6.74-.79,2.09-1.95,3.92-3.47,5.47-1.52,1.56-3.38,2.78-5.57,3.67-2.19.89-4.7,1.34-7.53,1.34-1.63,0-3.23-.17-4.81-.5-1.58-.33-3.09-.8-4.54-1.41s-2.81-1.35-4.07-2.21c-1.26-.86-2.39-1.81-3.38-2.87l2.76-4.74c.26-.34.57-.63.94-.86.37-.23.77-.35,1.22-.35.59,0,1.23.25,1.91.75.68.5,1.49,1.06,2.42,1.67s2.03,1.17,3.29,1.67c1.26.5,2.78.75,4.54.75,2.71,0,4.81-.67,6.3-2s2.23-3.25,2.23-5.75c0-1.4-.34-2.54-1.01-3.42s-1.56-1.62-2.67-2.22c-1.11-.6-2.37-1.11-3.78-1.52-1.42-.42-2.85-.87-4.32-1.36s-2.9-1.08-4.31-1.76c-1.42-.69-2.68-1.58-3.78-2.68-1.11-1.1-2-2.48-2.67-4.13-.67-1.65-1.01-3.69-1.01-6.12,0-1.93.37-3.82,1.11-5.66.74-1.84,1.83-3.47,3.25-4.89,1.43-1.42,3.18-2.56,5.25-3.42s4.44-1.29,7.11-1.29c3.02,0,5.8.49,8.35,1.47,2.55.98,4.71,2.35,6.51,4.11l-2.33,4.67Z"/>
</svg>