<?xml version="1.0" encoding="UTF-8"?>
<svg id="Layer_1" data-name="Layer 1" xmlns="http://www.w3.org/2000/svg" viewBox="0 0 1200 630">
  <defs>
    <style>
      .cls-1, .cls-2 { fill: #01a0dc; }
      .cls-3, .cls-4 { fill: #4d4d4d; }
      .cls-2, .cls-4 { opacity: .12; }
    </style>
  </defs>
  <path class="cls-2" d="M905.92,169.54l.48,219.66c-205.89,119.09-395.28,242.91-594.37,349.72L0,906.3V112.35L904.48-400.36l1.44,569.9Z"/>
  <path class="cls-4" d="M312.03,738.91c199.1-106.81,388.48-230.63,594.37-349.72l-.48-219.66L1219.76,6.3l1.65,789.92-904.28,512.08-5.1-569.39Z"/>
  <path class="cls-1" d="M252.73,274.89l-.91,30.98c-28.96,16.79-55.59,34.26-83.59,49.32l-43.88,23.6v-111.96l127.2-72.3,1.18,80.37Z"/>
  <path class="cls-3" d="M168.23,355.18c28-15.06,54.63-32.52,83.59-49.32l.91-30.98,43.16-23.02.23,111.39-127.17,72.21-.72-80.29Z"/>
  <path class="cls-3" d="M430.29,389.74h-24.86v-138.32h24.86v138.32Z"/>
  <path class="cls-3" d="M485.82,341.05v48.69h-24.77v-138.32h43.37c8.9,0,16.61,1.09,23.11,3.25,6.51,2.17,11.88,5.2,16.12,9.09,4.24,3.89,7.37,8.55,9.39,13.97,2.03,5.42,3.04,11.35,3.04,17.79s-1.08,12.83-3.22,18.41c-2.15,5.58-5.37,10.38-9.67,14.4-4.3,4.02-9.67,7.14-16.12,9.38-6.45,2.23-14,3.35-22.65,3.35l-16.91-20.09c4.54,0,25.41-.59,28.79-1.77,3.38-1.18,6.17-2.87,8.38-5.07,2.21-2.2,3.87-4.88,4.97-8.04,1.11-3.16,1.66-6.68,1.66-10.57s-.55-7.05-1.66-10.04c-1.1-3-2.76-5.55-4.97-7.65-2.21-2.1-5-3.71-8.38-4.83-3.38-1.11-7.34-1.67-11.88-1.67h-18.6v69.92"/>
  <path class="cls-3" d="M906.51,341.05v48.69h-24.77v-138.32h43.37c8.9,0,16.61,1.09,23.11,3.25,6.51,2.17,11.88,5.2,16.12,9.09,4.24,3.89,7.37,8.55,9.39,13.97,2.03,5.42,3.04,11.35,3.04,17.79s-1.08,12.83-3.22,18.41c-2.15,5.58-5.37,10.38-9.67,14.4-4.3,4.02-9.67,7.14-16.12,9.38-6.45,2.23-14,3.35-22.65,3.35l-16.91-20.09c4.54,0,25.41-.59,28.79-1.77,3.38-1.18,6.17-2.87,8.38-5.07,2.21-2.2,3.87-4.88,4.97-8.04,1.11-3.16,1.66-6.68,1.66-10.57s-.55-7.05-1.66-10.04c-1.1-3-2.76-5.55-4.97-7.65-2.21-2.1-5-3.71-8.38-4.83-3.38-1.11-7.34-1.67-11.88-1.67h-18.6v69.92"/>
  <path class="cls-3" d="M628.93,368.98c4.79,0,9.07-.83,12.85-2.49,3.78-1.66,6.97-3.98,9.58-6.98s4.6-6.63,5.99-10.91c1.38-4.27,2.07-9.05,2.07-14.35v-82.84h24.77v82.84c0,8.23-1.27,15.83-3.82,22.82-2.55,6.98-6.21,13.01-11.01,18.08-4.79,5.07-10.59,9.02-17.4,11.86-6.82,2.84-14.49,4.26-23.02,4.26s-16.21-1.42-23.02-4.26c-6.81-2.84-12.6-6.79-17.36-11.86-4.76-5.07-8.41-11.1-10.96-18.08-2.55-6.98-3.82-14.59-3.82-22.82v-82.84h24.77v82.75c0,5.29.69,10.08,2.07,14.35,1.38,4.27,3.36,7.92,5.94,10.95,2.58,3.03,5.76,5.37,9.53,7.03,3.77,1.66,8.06,2.49,12.85,2.49Z"/>
  <path class="cls-3" d="M779.17,338.7c.89,2.2,1.76,4.42,2.63,6.65.86-2.3,1.75-4.56,2.67-6.79.92-2.23,1.9-4.37,2.95-6.41l39.41-76.62c.49-.96,1-1.72,1.52-2.29.52-.57,1.11-.99,1.75-1.24.65-.25,1.37-.41,2.16-.48.8-.06,1.75-.1,2.86-.1h18.69v138.32h-21.82v-89.35c0-1.66.05-3.47.14-5.45s.23-3.99.41-6.03l-40.24,78.44c-.92,1.79-2.12,3.17-3.59,4.16-1.47.99-3.19,1.48-5.16,1.48h-3.41c-1.97,0-3.68-.49-5.16-1.48-1.47-.99-2.67-2.37-3.59-4.16l-40.8-78.73c.25,2.1.41,4.16.51,6.17.09,2.01.14,3.87.14,5.6v89.35h-21.82v-138.32h18.69c1.1,0,2.05.03,2.85.1.8.06,1.52.23,2.16.48.65.26,1.24.67,1.8,1.24.55.57,1.07,1.34,1.56,2.29l39.78,76.82c1.04,2.04,2.01,4.16,2.9,6.36Z"/>
  <path class="cls-3" d="M1067.18,276.57c-.68,1.4-1.46,2.39-2.35,2.97-.89.57-1.95.86-3.18.86s-2.61-.49-4.14-1.48c-1.54-.99-3.35-2.09-5.43-3.3-2.09-1.21-4.53-2.31-7.32-3.3-2.79-.99-6.09-1.48-9.9-1.48-3.44,0-6.43.43-8.98,1.29-2.55.86-4.7,2.06-6.45,3.59s-3.05,3.37-3.91,5.5c-.86,2.14-1.29,4.48-1.29,7.03,0,3.25.87,5.96,2.62,8.13,1.75,2.17,4.07,4.02,6.95,5.55s6.17,2.9,9.86,4.11c3.68,1.21,7.44,2.5,11.28,3.88,3.84,1.37,7.6,2.96,11.28,4.78,3.68,1.82,6.97,4.11,9.85,6.89,2.88,2.77,5.2,6.17,6.95,10.19s2.62,8.9,2.62,14.64c0,6.25-1.03,12.1-3.08,17.55-2.06,5.45-5.07,10.2-9.02,14.25-3.96,4.05-8.8,7.24-14.5,9.57-5.71,2.33-12.25,3.49-19.61,3.49-4.24,0-8.41-.43-12.53-1.29-4.11-.86-8.06-2.09-11.83-3.68-3.78-1.59-7.31-3.51-10.59-5.74-3.28-2.23-6.21-4.72-8.79-7.46l7.18-12.34c.67-.89,1.49-1.64,2.44-2.25.95-.61,2.01-.91,3.18-.91,1.53,0,3.19.65,4.97,1.96,1.78,1.31,3.88,2.76,6.31,4.35s5.28,3.04,8.56,4.35c3.29,1.31,7.23,1.96,11.83,1.96,7.06,0,12.53-1.74,16.39-5.21s5.8-8.46,5.8-14.97c0-3.64-.87-6.6-2.62-8.9s-4.07-4.22-6.95-5.79c-2.89-1.56-6.17-2.89-9.85-3.97-3.68-1.09-7.43-2.26-11.24-3.54s-7.55-2.8-11.23-4.59c-3.68-1.79-6.97-4.11-9.85-6.98-2.89-2.87-5.2-6.46-6.95-10.76-1.75-4.3-2.63-9.61-2.63-15.93,0-5.04.97-9.95,2.9-14.73,1.94-4.78,4.76-9.02,8.47-12.72,3.71-3.7,8.27-6.66,13.67-8.9s11.57-3.35,18.51-3.35c7.86,0,15.1,1.28,21.73,3.83,6.63,2.55,12.28,6.12,16.94,10.71l-6.08,12.15Z"/>
</svg>
