<?xml version="1.0" encoding="UTF-8"?>
<svg id="Layer_1" data-name="Layer 1" xmlns="http://www.w3.org/2000/svg" viewBox="0 0 1867.17 630">
  <defs>
    <style>
      .cls-1 {
        fill: #01a0dc;
      }

      .cls-2 {
        fill: #4d4d4d;
      }
    </style>
  </defs>
  <path class="cls-1" d="M252.73,274.89l-.91,30.98c-28.96,16.79-55.59,34.26-83.59,49.32l-43.88,23.6v-111.96l127.2-72.3,1.18,80.37Z"/>
  <path class="cls-2" d="M168.23,355.18c28-15.06,54.63-32.52,83.59-49.32l.91-30.98,43.16-23.02.23,111.39-127.17,72.21-.72-80.29Z"/>
  <path class="cls-2" d="M404.31,313.85v54.95h-27.96v-156.11h48.95c10.05,0,18.74,1.23,26.09,3.67,7.34,2.45,13.41,5.87,18.19,10.26,4.78,4.39,8.32,9.65,10.6,15.76,2.29,6.12,3.43,12.81,3.43,20.08s-1.21,14.49-3.64,20.78c-2.42,6.3-6.06,11.71-10.91,16.25-4.85,4.53-10.91,8.06-18.19,10.58-7.27,2.52-15.8,3.78-25.57,3.78l-19.08-22.67c5.13,0,28.68-.66,32.49-2,3.81-1.33,6.96-3.24,9.46-5.72,2.49-2.48,4.36-5.51,5.61-9.07,1.25-3.56,1.87-7.54,1.87-11.93s-.62-7.95-1.87-11.34c-1.25-3.38-3.12-6.26-5.61-8.64-2.49-2.37-5.65-4.19-9.46-5.45-3.81-1.26-8.28-1.89-13.41-1.89h-21v78.91"/>
  <path class="cls-2" d="M1157.73,313.85v54.95h-27.96v-156.11h48.95c10.05,0,18.74,1.23,26.09,3.67,7.34,2.45,13.41,5.87,18.19,10.26,4.78,4.39,8.32,9.65,10.6,15.76,2.29,6.12,3.43,12.81,3.43,20.08s-1.21,14.49-3.64,20.78c-2.42,6.3-6.06,11.71-10.91,16.25-4.85,4.53-10.91,8.06-18.19,10.58-7.27,2.52-15.8,3.78-25.57,3.78l-19.08-22.67c5.13,0,28.68-.66,32.49-2,3.81-1.33,6.96-3.24,9.46-5.72,2.49-2.48,4.36-5.51,5.61-9.07,1.25-3.56,1.87-7.54,1.87-11.93s-.62-7.95-1.87-11.34c-1.25-3.38-3.12-6.26-5.61-8.64-2.49-2.37-5.65-4.19-9.46-5.45-3.81-1.26-8.28-1.89-13.41-1.89h-21v78.91"/>
  <path class="cls-2" d="M565.02,343.89c5.35,0,10.14-.92,14.36-2.78,4.22-1.85,7.79-4.45,10.7-7.8s5.15-7.41,6.69-12.19c1.54-4.77,2.32-10.12,2.32-16.04v-92.58h27.69v92.58c0,9.2-1.42,17.69-4.27,25.5-2.85,7.8-6.95,14.54-12.3,20.21-5.35,5.67-11.83,10.09-19.45,13.26-7.62,3.17-16.2,4.76-25.73,4.76s-18.11-1.59-25.73-4.76c-7.62-3.17-14.08-7.59-19.4-13.26-5.32-5.67-9.4-12.4-12.25-20.21-2.85-7.81-4.27-16.3-4.27-25.5v-92.58h27.69v92.48c0,5.92.77,11.26,2.32,16.04,1.54,4.77,3.76,8.86,6.64,12.24,2.88,3.39,6.43,6,10.65,7.86,4.22,1.86,9.01,2.78,14.36,2.78Z"/>
  <path class="cls-2" d="M1371.88,248.33c-2.85-7.8-6.93-14.54-12.25-20.21-5.32-5.67-11.78-10.09-19.4-13.26-7.62-3.17-16.19-4.76-25.73-4.76s-18.11,1.59-25.73,4.76c-7.62,3.17-14.1,7.59-19.45,13.26-5.35,5.67-9.45,12.4-12.3,20.21-2.85,7.81-4.27,16.3-4.27,25.5v31.26c0,9.2,1.42,17.69,4.27,25.5,2.85,7.8,6.93,14.54,12.25,20.21s11.79,10.09,19.4,13.26c7.62,3.17,16.19,4.76,25.73,4.76s18.11-1.59,25.73-4.76c7.62-3.17,14.1-7.59,19.45-13.26,5.35-5.67,9.45-12.4,12.3-20.21,2.85-7.81,4.27-16.3,4.27-25.5v-31.26c0-9.2-1.42-17.69-4.27-25.5ZM1348.47,294.28v10.8c0,5.92-.77,11.26-2.32,16.04-1.54,4.78-3.77,8.84-6.69,12.19-2.92,3.35-6.48,5.95-10.7,7.8-4.22,1.86-9,2.78-14.36,2.78s-10.14-.92-14.36-2.78c-4.22-1.85-7.77-4.47-10.65-7.86-2.88-3.38-5.1-7.47-6.64-12.24-1.54-4.77-2.32-10.12-2.32-16.04v-31.15c0-5.92.77-11.26,2.32-16.04,1.54-4.78,3.77-8.84,6.69-12.19,2.92-3.35,6.48-5.95,10.7-7.8,4.22-1.86,9-2.78,14.36-2.78s10.14.92,14.36,2.78c4.22,1.85,7.77,4.47,10.65,7.86,2.88,3.38,5.1,7.47,6.64,12.24,1.54,4.77,2.32,10.12,2.32,16.04v20.35Z"/>
  <path class="cls-2" d="M1510.01,248.33c-2.85-7.8-6.93-14.54-12.25-20.21-5.32-5.67-11.78-10.09-19.4-13.26-7.62-3.17-16.19-4.76-25.73-4.76s-18.11,1.59-25.73,4.76c-7.62,3.17-14.1,7.59-19.45,13.26-5.35,5.67-9.45,12.4-12.3,20.21-2.85,7.81-4.27,16.3-4.27,25.5v31.26c0,9.2,1.42,17.69,4.27,25.5,2.85,7.8,6.93,14.54,12.25,20.21,5.32,5.67,11.79,10.09,19.4,13.26,7.62,3.17,16.19,4.76,25.73,4.76s18.11-1.59,25.73-4.76c7.62-3.17,14.1-7.59,19.45-13.26,5.35-5.67,9.45-12.4,12.3-20.21,2.85-7.81,4.27-16.3,4.27-25.5v-31.26c0-9.2-1.42-17.69-4.27-25.5ZM1486.6,294.28v10.8c0,5.92-.77,11.26-2.32,16.04-1.54,4.78-3.77,8.84-6.69,12.19-2.92,3.35-6.48,5.95-10.7,7.8-4.22,1.86-9,2.78-14.36,2.78s-10.14-.92-14.36-2.78c-4.22-1.85-7.77-4.47-10.65-7.86-2.88-3.38-5.1-7.47-6.64-12.24-1.54-4.77-2.32-10.12-2.32-16.04v-31.15c0-5.92.77-11.26,2.32-16.04,1.54-4.78,3.77-8.84,6.69-12.19,2.92-3.35,6.48-5.95,10.7-7.8,4.22-1.86,9-2.78,14.36-2.78s10.14.92,14.36,2.78c4.22,1.85,7.77,4.47,10.65,7.86,2.88,3.38,5.1,7.47,6.64,12.24,1.54,4.77,2.32,10.12,2.32,16.04v20.35Z"/>
  <path class="cls-2" d="M728.35,311.11c1.01,2.49,1.99,4.99,2.97,7.51.97-2.6,1.98-5.15,3.02-7.68,1.04-2.52,2.15-4.94,3.33-7.24l44.55-86.62c.55-1.08,1.13-1.95,1.72-2.59.59-.65,1.25-1.12,1.98-1.41.73-.29,1.54-.47,2.45-.54.9-.07,1.98-.11,3.23-.11h21.13v156.37h-24.67v-101c0-1.87.05-3.93.16-6.16.1-2.23.26-4.51.47-6.81l-45.49,88.68c-1.04,2.02-2.39,3.59-4.06,4.7-1.67,1.12-3.61,1.68-5.83,1.68h-3.85c-2.22,0-4.17-.56-5.83-1.68-1.67-1.12-3.02-2.68-4.06-4.7l-46.12-89c.28,2.38.47,4.7.57,6.98.1,2.27.16,4.38.16,6.33v101h-24.67v-156.37h21.13c1.25,0,2.32.04,3.23.11.9.07,1.72.25,2.45.54.73.29,1.41.76,2.03,1.41.62.65,1.21,1.51,1.77,2.59l44.97,86.84c1.18,2.31,2.27,4.7,3.28,7.19Z"/>
  <path class="cls-2" d="M1110.22,368.8h-21.71c-1.24,0-2.36-.04-3.32-.13-1.1-.1-2.11-.36-3.02-.76-.98-.44-1.87-1.14-2.67-2.07-.73-.86-1.4-1.98-2.02-3.33l-43.89-96.19c-1.18-2.61-2.27-5.34-3.26-8.12-.35-.98-.7-1.97-1.05-2.96-.37,1.05-.74,2.1-1.13,3.15-1.03,2.84-2.14,5.58-3.31,8.16l-43.49,95.96c-.6,1.34-1.26,2.45-1.93,3.29-.76.95-1.65,1.67-2.65,2.12-.91.41-1.92.66-3.01.76-.96.09-2.08.13-3.33.13h-21.7l67.17-147.95c1.15-2.52,2.68-4.53,4.56-5.96,1.97-1.5,4.28-2.26,6.87-2.26h3.76c2.6,0,4.91.76,6.87,2.26,1.88,1.42,3.41,3.43,4.56,5.95l67.69,147.96Z"/>
  <path class="cls-2" d="M939.01,301.01c-4.07-5.95-9.73-9.96-16.81-11.92l-2.78-.77,2.66-1.14c6.2-2.67,11.11-6.92,14.6-12.63,3.49-5.74,5.26-12.48,5.26-20.04,0-13.87-4.41-24.53-13.11-31.67-8.76-7.19-21.86-10.84-38.93-10.84h-49.18v156.82h54.7c15.93-.14,28.36-4.09,36.92-11.74,8.53-7.62,12.85-19.04,12.85-33.94,0-8.7-2.08-16.14-6.17-22.12ZM910.49,342.44c-4.08,4.23-9.81,6.37-17.02,6.37h-26.31v-48.22h-.03s.04-22.06.04-22.06v-44.86h21.76c8.39,0,14.65,1.79,18.61,5.33,4,3.57,6.02,9.42,6.02,17.39,0,14.37-7.88,21.82-23.42,22.14h-19.81l17.94,21.09h-.07s.07,0,.07,0h6.97c14.2.25,21.39,8.79,21.39,25.37,0,7.36-2.07,13.23-6.14,17.44Z"/>
  <path class="cls-2" d="M1651.85,250.65c-2.85-7.8-6.95-14.54-12.3-20.21-5.35-5.67-11.83-10.09-19.45-13.26-7.49-3.12-15.92-4.7-25.26-4.75h0s-.29,0-.29,0c-.06,0-61.89-.06-61.89-.06v156.43l61.66-.03s.03,0,.04,0c.06,0,.12,0,.18,0h.29c9.35-.06,17.77-1.64,25.26-4.75,7.62-3.17,14.1-7.59,19.45-13.26,5.35-5.67,9.45-12.4,12.3-20.21,2.85-7.81,4.27-16.3,4.27-25.5v-28.9c0-9.2-1.42-17.69-4.27-25.5ZM1628.44,290.58v14.47c0,5.92-.77,11.26-2.32,16.04-1.54,4.78-3.77,8.84-6.69,12.19-2.92,3.35-6.48,5.95-10.7,7.8-4.22,1.86-9,2.78-14.36,2.78-.1,0-.21.03-.31.04h-33.69v-106.61h33.69c.1.02.21.04.31.04,5.35,0,10.14.92,14.36,2.78,4.22,1.85,7.79,4.45,10.7,7.8,2.92,3.35,5.15,7.41,6.69,12.19,1.54,4.77,2.32,10.12,2.32,16.04v14.43Z"/>
</svg>